<svg width="60" height="61" viewBox="0 0 60 61" fill="none" xmlns="http://www.w3.org/2000/svg">
<rect y="0.5" width="60" height="60" rx="30" fill="white"/>
<path d="M32.176 28.292C33.648 28.5053 34.9173 29.0493 35.984 29.924C37.072 30.7773 37.616 31.9293 37.616 33.38C37.616 34.4467 37.3707 35.3747 36.88 36.164C36.3893 36.9533 35.7387 37.5613 34.928 37.988C34.1173 38.4147 33.264 38.724 32.368 38.916C31.4933 39.1293 30.5867 39.236 29.648 39.236C28.944 39.236 28.1973 39.1613 27.408 39.012C26.64 38.884 25.8507 38.6813 25.04 38.404C24.2507 38.1053 23.6 37.668 23.088 37.092C22.576 36.4947 22.32 35.812 22.32 35.044C22.32 34.1907 22.5973 33.4867 23.152 32.932C23.7067 32.356 24.432 32.068 25.328 32.068C25.84 32.068 26.3413 32.1427 26.832 32.292C27.3227 32.42 27.6107 32.548 27.696 32.676C27.7387 32.7613 27.76 32.8787 27.76 33.028C27.7813 33.156 27.7813 33.3373 27.76 33.572C27.7387 33.7853 27.728 33.9773 27.728 34.148C27.728 34.7453 27.8773 35.1933 28.176 35.492C28.496 35.7907 28.912 35.94 29.424 35.94C29.9573 35.94 30.416 35.7267 30.8 35.3C31.184 34.852 31.376 34.3293 31.376 33.732C31.376 32.9853 31.1307 32.324 30.64 31.748C30.1493 31.1507 29.2747 30.852 28.016 30.852H26.928C26.8427 30.852 26.8 30.7987 26.8 30.692V28.132C26.8 28.0467 26.8213 28.004 26.864 28.004L31.28 25.668H23.216C23.152 25.6467 23.1093 25.604 23.088 25.54V20.868C23.088 20.7827 23.1413 20.74 23.248 20.74H37.008L37.168 20.836V25.54C37.168 25.604 37.1467 25.6467 37.104 25.668L32.208 28.26L32.176 28.292Z" fill="#164194"/>
</svg>
