<svg width="60" height="60" viewBox="0 0 60 60" fill="none" xmlns="http://www.w3.org/2000/svg">
<rect width="60" height="60" rx="30" fill="white"/>
<path d="M37.136 33.168V37.872C37.1573 37.9573 37.1147 38 37.008 38H22.96C22.8747 38 22.8213 37.9573 22.8 37.872V33.2C22.8 33.136 22.832 33.0933 22.896 33.072C24.4107 32.4533 26.1707 31.184 28.176 29.264C30.1813 27.3227 31.184 25.776 31.184 24.624C31.184 23.3867 30.6613 22.768 29.616 22.768C29.0613 22.768 28.6027 22.9493 28.24 23.312C27.8987 23.6533 27.728 24.1333 27.728 24.752C27.728 24.9013 27.7387 25.0827 27.76 25.296C27.7813 25.5093 27.7813 25.6693 27.76 25.776C27.76 25.8827 27.7387 25.9787 27.696 26.064C27.6107 26.192 27.3227 26.32 26.832 26.448C26.3627 26.576 25.872 26.64 25.36 26.64C24.464 26.64 23.728 26.352 23.152 25.776C22.5973 25.2 22.3307 24.5173 22.352 23.728C22.352 22.7253 22.7787 21.8933 23.632 21.232C24.5067 20.5493 25.456 20.0907 26.48 19.856C27.5253 19.6213 28.5813 19.504 29.648 19.504C30.928 19.504 32.144 19.664 33.296 19.984C34.448 20.304 35.4507 20.8693 36.304 21.68C37.1573 22.4693 37.584 23.4293 37.584 24.56C37.584 25.2 37.424 25.8507 37.104 26.512C36.784 27.1733 36.3573 27.7813 35.824 28.336C35.312 28.8693 34.7467 29.392 34.128 29.904C33.5093 30.3947 32.8907 30.832 32.272 31.216C31.6533 31.5787 31.0773 31.8987 30.544 32.176C30.032 32.4533 29.616 32.6667 29.296 32.816L28.816 33.04L28.72 33.072C30.896 33.0507 33.6587 33.04 37.008 33.04C37.072 33.0613 37.1147 33.104 37.136 33.168Z" fill="#164194"/>
</svg>
