<svg width="61" height="60" viewBox="0 0 61 60" fill="none" xmlns="http://www.w3.org/2000/svg">
<rect x="0.977539" width="60" height="60" rx="30" fill="white"/>
<path d="M34.1895 19.44C34.2535 19.44 34.2855 19.4933 34.2855 19.6V37.84C34.2855 37.9253 34.2429 37.9787 34.1575 38H27.9815C27.8962 38 27.8535 37.9467 27.8535 37.84V25.04C27.8535 24.1867 27.7682 23.5147 27.5975 23.024C27.4482 22.512 27.2562 22.1493 27.0215 21.936C26.8082 21.7227 26.7015 21.6053 26.7015 21.584C26.6162 21.4347 26.6375 21.3067 26.7655 21.2C26.8935 21.0933 27.1175 21.008 27.4375 20.944L34.1895 19.44Z" fill="#164194"/>
</svg>
